<?xml version="1.0" encoding="utf-8"?>
<!-- Generator: Adobe Illustrator 23.0.5, SVG Export Plug-In . SVG Version: 6.00 Build 0)  -->
<svg version="1.1" id="Layer_1" xmlns="http://www.w3.org/2000/svg" xmlns:xlink="http://www.w3.org/1999/xlink" x="0px" y="0px"
	 viewBox="0 0 200 200" style="enable-background:new 0 0 200 200;" xml:space="preserve">
<style type="text/css">
	.st0{fill:#2A206A;}
</style>
<path class="st0" d="M100,200C44.8,200,0,155.2,0,100S44.8,0,100,0s100,44.8,100,100S155.2,200,100,200z M75.6,138
	c-3,3.5-3,9.2,0,12.7c3,3.5,7.9,3.5,10.8,0l38-44.4c1.5-1.8,2.3-4,2.3-6.3c0-2.3-0.8-4.6-2.3-6.3l-38-44.4c-2.4-3-6.7-3.5-9.7-1.1
	c-0.4,0.3-0.8,0.7-1.1,1.1c-3,3.5-3,9.2,0,12.7l32.6,38L75.6,138z"/>
</svg>
