<?xml version="1.0" standalone="no"?><!DOCTYPE svg PUBLIC "-//W3C//DTD SVG 1.1//EN" "http://www.w3.org/Graphics/SVG/1.1/DTD/svg11.dtd"><svg t="1612441481382" class="icon" viewBox="0 0 1024 1024" version="1.1" xmlns="http://www.w3.org/2000/svg" p-id="5430" xmlns:xlink="http://www.w3.org/1999/xlink" width="200" height="200"><defs><style type="text/css"></style></defs><path d="M512 1024C229.2224 1024 0 794.7776 0 512S229.2224 0 512 0s512 229.2224 512 512-229.2224 512-512 512z m-125.0304-317.2864c-15.36 17.92-15.36 47.0016 0 64.9216s40.2432 17.92 55.552 0l194.5088-227.1744a49.9712 49.9712 0 0 0 11.52-32.4608 49.9712 49.9712 0 0 0-11.52-32.4608L442.5216 252.416a35.4304 35.4304 0 0 0-55.552 0c-15.36 17.92-15.36 47.0016 0 64.9216L553.6768 512l-166.7072 194.7136z" fill="#968CE8" p-id="5431"></path></svg>