<?xml version="1.0" encoding="utf-8"?>
<!-- Generator: Adobe Illustrator 23.0.5, SVG Export Plug-In . SVG Version: 6.00 Build 0)  -->
<svg version="1.1" id="Layer_1" xmlns="http://www.w3.org/2000/svg" xmlns:xlink="http://www.w3.org/1999/xlink" x="0px" y="0px"
	 viewBox="0 0 200 200" style="enable-background:new 0 0 200 200;" xml:space="preserve">
<style type="text/css">
	.st0{fill:#2A206A;}
</style>
<path class="st0" d="M100,0c55.2,0.1,99.9,44.8,100,100c-0.1,55.2-44.8,99.9-100,100C44.8,199.9,0.1,155.2,0,100
	C0.1,44.8,44.8,0.1,100,0z M128.1,48.5c-2.8-2.8-7.3-2.8-10.1-0.1L71.8,94.8c-1.4,1.4-2.1,3.3-2,5.2c-0.1,2,0.6,3.9,2,5.3l46.3,46.3
	c2.7,2.8,7.2,2.7,10,0c2.8-2.8,2.8-7.3,0.1-10.1L86.8,100l41.4-41.4C130.9,55.8,130.9,51.3,128.1,48.5
	C128.1,48.6,128.1,48.5,128.1,48.5L128.1,48.5z"/>
</svg>
