<?xml version="1.0" standalone="no"?><!DOCTYPE svg PUBLIC "-//W3C//DTD SVG 1.1//EN" "http://www.w3.org/Graphics/SVG/1.1/DTD/svg11.dtd"><svg t="1612441632889" class="icon" viewBox="0 0 1024 1024" version="1.1" xmlns="http://www.w3.org/2000/svg" p-id="3006" xmlns:xlink="http://www.w3.org/1999/xlink" width="200" height="200"><defs><style type="text/css"></style></defs><path d="M512 0a512.512 512.512 0 0 1 512 512 512.512 512.512 0 0 1-512 512 512.512 512.512 0 0 1-512-512 512.512 512.512 0 0 1 512-512z m144 248.512a36.48 36.48 0 0 0-51.52-0.384L367.488 485.12a35.392 35.392 0 0 0-10.24 26.816 35.84 35.84 0 0 0 10.24 27.008l236.992 236.992c13.952 14.08 37.056 14.016 51.328-0.256a36.544 36.544 0 0 0 0.448-51.52L444.16 512.064l212.032-212.096a36.288 36.288 0 0 0-0.256-51.456z" fill="#968CE8" p-id="3007"></path></svg>