<svg id="Layer_1" data-name="Layer 1" xmlns="http://www.w3.org/2000/svg" viewBox="0 0 436 436"><defs><style>.cls-1{fill:#302f68;}.cls-2{fill:#00ad66;}.cls-3{fill:none;}</style></defs><title>timeline-registration</title><path class="cls-1" d="M212.32,217.7A16.57,16.57,0,0,1,223.56,213H364.77v18.89H228.34c-4.66,0-7.17,2.63-8.61,3.95-6,5.62-46,42.44-46,42.44l-12.08-11.83c0,.11,45.08-43.53,50.7-48.79M293.15,115c16,0,24.75-11.12,24.75-24.75A24.75,24.75,0,1,0,293.15,115m-36.71,42.45h8.25L252.5,201.08h81.18l-12.19-43.64h8.25l12.55,43.64H363.7l-17.22-57.87c-2.27-8-12.44-22.12-29.89-22.12H269.47c-17.45,0-27.62,14.23-29.89,22.12l-17.1,57.87h21.41Zm-70.07,41.37L175.85,179.2l-11.24-21a2.92,2.92,0,0,0-3.7-.84c-2.16,1.07-1.2,3.47-1.2,3.47l7.17,13.75,4.55,8.61-5.14-2.4c-9.21-4.18-14.23-5.85-16.27-6.81a6.74,6.74,0,0,1-3-3c-2.4-5.38-12.68-31.33-14.95-37.07a23.57,23.57,0,0,0-16.62-14.23A20.9,20.9,0,0,0,90.24,135.2L74.94,200c-1.32,5.27-3.71,19.38-3.71,25.23s.12,126.27.12,126.27c0,10.76,7.65,19.25,18.29,19.25s17.94-8.73,17.82-19.37v-107l16.38-69c1.91,4.67,4.3,10.41,5,11.72,1.91,3.23,3.71,5.5,7.41,7.18,0,0,21.41,8.84,29.66,12.67a11.78,11.78,0,0,0,13.51-3.71l1.19-2.39.36.72s2.39,4.3,6.1,4.54c1.08-3.35-.72-7.29-.72-7.29M153.25,90a24.69,24.69,0,1,0-24.63,24.75A24.8,24.8,0,0,0,153.25,90" transform="translate(0 0)"/><polygon class="cls-2" points="164.37 251.42 212.56 206.58 206.34 199.88 158.16 244.72 164.37 251.42"/><rect class="cls-3" width="436" height="436"/></svg>