<svg id="Layer_1" data-name="Layer 1" xmlns="http://www.w3.org/2000/svg" viewBox="0 0 436 436"><defs><style>.cls-1{fill:#302f68;}.cls-2{fill:#1cc283;}.cls-3{fill:none;}</style></defs><title>timeline-webinar</title><path class="cls-1" d="M166.12,236.67h0v-6s18.82.58,27.76-8.54c0,0-13-3.67-10.66-27.36s-2.92-44.43-21.94-42.68c0,0-8.25-9.93-24.65-3.67-5.62,2.16-20.74,7.55-20,40.35s-11.66,33-11.66,33,6.41,9.32,28.15,9.12V237l16.52,48.24,16.49-48.15Z" transform="translate(0 0)"/><path class="cls-1" d="M210.49,286l-3.32-18.35a19.16,19.16,0,0,0-10.35-13.72L176,243.63c-1.19-.58-2.36-1.25-3.52-1.89l6.55,19.34-9.18-.7-20.21,24.88-20.22-24.88-9.18.7,6.7-19.34-4.17,2.12-20.3,10a19.16,19.16,0,0,0-10.35,13.72L88.82,286a2.22,2.22,0,0,0,2.16,2.6H208.27A2.23,2.23,0,0,0,210.49,286Z" transform="translate(0 0)"/><path class="cls-1" d="M70.72,100.57a19.25,19.25,0,0,0-19.15,19.18V292.18a19.22,19.22,0,0,0,19.15,19.16H365.28a19.24,19.24,0,0,0,19.15-19.17V119.75a19.25,19.25,0,0,0-19.15-19.18l-294.56,0Zm0,11,294.56,0a8,8,0,0,1,8.18,8.19V292.18a8,8,0,0,1-8.18,8.19H70.72a8.06,8.06,0,0,1-8.18-8.2V119.75a8.05,8.05,0,0,1,8.18-8.2Z" transform="translate(0 0)"/><path class="cls-1" d="M34,314.51c0,11.58,8,20.91,17.93,20.91h332.1c9.93,0,17.93-9.34,17.93-20.92H34Z" transform="translate(0 0)"/><path class="cls-2" d="M222.34,148l9.87,0,0-3.87.62-.32a53.8,53.8,0,0,1,9.27-3.63l-.06-10,.82-.24a78.2,78.2,0,0,1,21.29-2.8h.39c9.88,0,19.3,1.62,25.95,4.45,6.62-2.88,16.1-4.55,26.14-4.59H317a77.76,77.76,0,0,1,20.89,2.62l.81.23,0,10a53.88,53.88,0,0,1,9.3,3.56l.62.31v3.86l9.87-.1.33,75.5-136.2.51Zm6.52,69.28,3.63,0-.25-62.91-3.65,0Zm35.67-4.7c-9.73,0-18.92,1.71-26,4.66l104.39-.38c-7-2.84-16.05-4.43-25.62-4.43h-.38c-9.73.05-18.87,1.62-25.76,4.42l-.42.18-.42-.17c-6.95-2.76-16-4.29-25.4-4.29ZM349,216.85h3.63l-.28-63.05-3.66,0ZM238.7,210.7a76,76,0,0,1,25.8-4.34h.42a76.07,76.07,0,0,1,25.79,4.15c7.35-2.76,16.39-4.25,26.18-4.29h.41a76.14,76.14,0,0,1,25.43,4l-.14-62.55c-1.18-.49-2.45-1-3.83-1.42l.22,59.38-1.43-.39a78.38,78.38,0,0,0-20.32-2.73h-.31c-10.57.05-20.68,1.76-25.75,4.38l-1.65.85v-1.24c-5.22-2.38-14.54-3.85-24.62-3.85h-.46a81.66,81.66,0,0,0-20.69,2.47l-1.44.41-.2-58.95c-1.37.46-2.63,1-3.82,1.46Zm55-10.84a74,74,0,0,1,23.15-3.55h.41a86.63,86.63,0,0,1,15.48,1.34l-.28-62.89a88.67,88.67,0,0,0-15.44-1.41h-.36a73.65,73.65,0,0,0-23.18,3.73Zm-28.93-3.41a72.37,72.37,0,0,1,22.78,3.35l-.33-63c-5.8-2.15-14.22-3.42-22.75-3.42h-.37A87.53,87.53,0,0,0,248.26,135l.28,62.9a86.94,86.94,0,0,1,15.88-1.49Z" transform="translate(0 0)"/><path class="cls-2" d="M223.8,222.38l-.32-73.23,9.87,0,0-4.31a54.36,54.36,0,0,1,9.88-3.79l-.05-10a77.65,77.65,0,0,1,21-2.76c10.61,0,20.16,1.82,26.35,4.56,6.17-2.8,15.53-4.65,26.13-4.7a78.05,78.05,0,0,1,21,2.57l0,10a53.78,53.78,0,0,1,9.92,3.71v4.31l9.87-.11.32,73.23-133.93.5Zm109.83-88.57a90.08,90.08,0,0,0-16.93-1.59,72.47,72.47,0,0,0-24.31,4.07l.23,65.19c6.11-2.41,14.76-4,24.27-4a83.35,83.35,0,0,1,17,1.59Zm-69.11,77.65c-12.5.06-23.64,2.77-30.89,6.94l-.26-65.18-5.92.09.28,65.12,126-.46-.28-65.3-5.93,0,.32,65.35c-7.29-4.11-18.45-6.72-31-6.67-10.05,0-19.2,1.66-26.17,4.51-7-2.79-16.17-4.41-26.22-4.37Zm-17.11-12.13a82.86,82.86,0,0,1,17-1.74c9.52-.05,18.17,1.47,24.31,3.82l-.34-65.36c-5.41-2.15-14.27-3.82-24.26-3.77a90.49,90.49,0,0,0-17,1.83l.28,65.22Zm43.24,6.49c-5-2.54-14.91-4.32-26.21-4.27a82.6,82.6,0,0,0-21,2.51l-.21-59a51.81,51.81,0,0,0-6.08,2.24l.43,65a80,80,0,0,1,53.14-.63c7.29-2.81,16.34-4.33,26.17-4.37,10.18,0,19.55,1.61,27,4.53l-.15-64.94a49.85,49.85,0,0,0-6.1-2.19l.23,59.42a79.81,79.81,0,0,0-20.94-2.76c-11.3.05-21.23,1.91-26.26,4.5" transform="translate(0 0)"/><rect class="cls-3" width="436" height="436"/></svg>