<svg id="Layer_1" data-name="Layer 1" xmlns="http://www.w3.org/2000/svg" viewBox="0 0 436 436"><defs><style>.cls-1{fill:#302f68;}.cls-2{fill:#fff;}.cls-3{fill:#00ad66;}.cls-4{fill:none;}</style></defs><title>timeline-troubleshoot</title><path class="cls-1" d="M104.36,237.89,150.68,219a123.09,123.09,0,0,0,14.18,3.35,55,55,0,0,0-2.37,16c0,37.25,37.44,67.69,83.76,67.69a100.65,100.65,0,0,0,31.53-4.83l46.32,18.86-15.27-36.72c13.85-12.53,21.22-28.5,21.22-45h0c0-32.47-28.45-59.75-66.45-66.22a55.32,55.32,0,0,0,2.41-16c0-37.24-37.48-67.68-83.81-67.68S98.45,119,98.45,156.21"/><path class="cls-2" d="M98.45,156.21c0,16.92,7.37,32.38,21.17,44.95l-15.26,36.73"/><path class="cls-2" d="M108.33,156.69c0-31.91,33-58,73.92-58s73.93,26.09,74.92,57.53A50,50,0,0,1,254.76,171c-2.79-.24-5.58-.33-8.42-.33-35.26,0-65.32,17.63-77.7,42.44-5.67-.47-18-4.21-18-4.21L122.6,220l8.89-21.27s-23.16-15.64-23.16-42.06"/><path class="cls-2" d="M277.78,291.16a86,86,0,0,1-31,5.76c-40.89,0-73.92-26.09-73.92-58s33-58,73.92-58,73.92,26.09,73.92,58c0,26.33-23.16,42.07-23.16,42.07l8.89,21.27-28.64-11.06Z"/><path class="cls-1" d="M77.18,246c-2.83-5.43-1-9.15.89-13.09a19.34,19.34,0,0,0,2.26-6.48c2.71-28.06-8.23-43.56-18.06-53.93-14.35-15.19-31.45-21.25-46.38-23.31v7.38c13.35,2,28.42,7.59,41,21C65.7,186.8,75.44,200.62,73,225.74a15.27,15.27,0,0,1-1.54,4c-2.12,4.35-5.34,11-.74,19.76,4.86,8.55,10.26,19.2,10.51,21.56,0,1.22-1.58,2.55-6,2.68a5.23,5.23,0,0,0-3.46,2.09,9.36,9.36,0,0,0-1.43,7.08l.1,6.7a5.41,5.41,0,0,1-1.91,1,3.58,3.58,0,0,0-1.44.9,5.09,5.09,0,0,0-.06,6.83s.25,1.1-1.84,4c-1.48,2-4.22,5.68-2.54,11.58.59,3.27.43,7.25-.27,8a2.37,2.37,0,0,0-.75.62s-4,3.54-18.22,1.81L41.19,324c-6.57-1-17.57-2.64-25,6.88l-.25.49v16.09c2.26-4.6,4.53-9.08,6.36-12.59,4.14-5.21,10.55-4.71,17.85-3.62l2.41.34c16.2,2,22.33-2,24.12-3.72,5-3.57,3.73-12.58,3.16-15.63-.79-2.76.08-3.94,1.69-6.11,3.31-4.63,3.18-8.07,2.52-10.07a7.66,7.66,0,0,0,3.78-5.68l-.14-8a9.88,9.88,0,0,1-.09-1.47c3.64-.36,6.47-1.58,8.45-3.67a8.83,8.83,0,0,0,2.56-5.74C88.92,268.5,85.05,259.88,77.18,246Z"/><path class="cls-1" d="M358.82,246c2.83-5.43,1-9.15-.89-13.09a19.34,19.34,0,0,1-2.26-6.48c-2.71-28.06,8.23-43.56,18.06-53.93,14.35-15.19,31.45-21.25,46.38-23.31v7.38c-13.35,2-28.42,7.59-41,21-8.77,9.25-18.51,23.07-16.08,48.19a15.27,15.27,0,0,0,1.54,4c2.12,4.35,5.34,11,.74,19.76-4.86,8.55-10.26,19.2-10.51,21.56.05,1.22,1.58,2.55,6,2.68a5.23,5.23,0,0,1,3.46,2.09,9.36,9.36,0,0,1,1.43,7.08l-.1,6.7a5.41,5.41,0,0,0,1.91,1,3.58,3.58,0,0,1,1.44.9,5.09,5.09,0,0,1,.06,6.83s-.25,1.1,1.84,4c1.48,2,4.22,5.68,2.54,11.58-.59,3.27-.43,7.25.27,8a2.37,2.37,0,0,1,.75.62s4,3.54,18.22,1.81l2.22-.31c6.57-1,17.57-2.64,25.05,6.88l.25.49v16.09c-2.26-4.6-4.53-9.08-6.36-12.59-4.14-5.21-10.55-4.71-17.85-3.62l-2.41.34c-16.2,2-22.33-2-24.12-3.72-5-3.57-3.73-12.58-3.16-15.63.79-2.76-.08-3.94-1.69-6.11-3.31-4.63-3.18-8.07-2.52-10.07a7.66,7.66,0,0,1-3.78-5.68l.14-8a9.88,9.88,0,0,0,.09-1.47c-3.64-.36-6.47-1.58-8.45-3.67a8.83,8.83,0,0,1-2.56-5.74C347.08,268.5,351,259.88,358.82,246Z"/><path class="cls-3" d="M182,112.07c12.87,0,25.55,5.93,25.55,20.12,0,13.08-15,18.11-18.21,22.84-2.41,3.52-1.61,8.46-8.25,8.46-4.32,0-6.44-3.52-6.44-6.74,0-12,17.61-14.69,17.61-24.56,0-5.43-3.62-8.65-9.66-8.65-12.88,0-7.85,13.28-17.6,13.28-3.52,0-6.55-2.11-6.55-6.13C158.45,120.82,169.72,112.07,182,112.07Zm-.5,58a8.26,8.26,0,1,1-8.26,8.25A8.29,8.29,0,0,1,181.5,170Z"/><path class="cls-3" d="M242.48,222.68l-.29-.26a15.57,15.57,0,0,0-19.08-19.22l8.82,8.82-2.31,8.64L221,223l-8.83-8.81A15.58,15.58,0,0,0,232,233l.05.05,36.29,36.29a7.35,7.35,0,0,0,10.4-10.4Zm31.73,45.46a2.81,2.81,0,1,1,2.81-2.81A2.8,2.8,0,0,1,274.21,268.14Z"/><rect class="cls-4" width="436" height="436"/></svg>