<svg id="Layer_1" data-name="Layer 1" xmlns="http://www.w3.org/2000/svg" viewBox="0 0 436 436"><defs><style>.cls-1{fill:#302f68;}.cls-2{fill:#00ad66;}.cls-3{fill:none;}</style></defs><title>timeline-experiment</title><path class="cls-1" d="M276.59,197.18a6.15,6.15,0,1,0-6.14-6.14A6.12,6.12,0,0,0,276.59,197.18Zm-20.2,26.21a9.69,9.69,0,1,0-9.7-9.69A9.72,9.72,0,0,0,256.39,223.39Zm-118.9-35.76a8.6,8.6,0,1,1-8.61,8.6A8.6,8.6,0,0,1,137.49,187.63Zm1.61-8.77a34.41,34.41,0,1,0,.14-68.82,34.78,34.78,0,0,0-29.85,17.62,25.87,25.87,0,0,1-2.69,3.28,17.11,17.11,0,0,1-24,0A11.24,11.24,0,0,1,80,127.66,59.71,59.71,0,0,0,139.1,178.86Zm164,164.74-21.67-43.18A20.73,20.73,0,0,0,291.76,295a18.64,18.64,0,0,0,5.84-13.11A17.78,17.78,0,0,0,292.36,269a21.26,21.26,0,0,0-15.15-6.3h-1.95v-13h5.47V238H236.54v11.71H242v13H219.76l-7.44-41.17-.09-.42A45.5,45.5,0,0,0,168.17,187H162l-24.4,43.31L113.2,187H107A45.5,45.5,0,0,0,63,221.12L45.73,302.27a19.32,19.32,0,0,0,14.1,23.57,19.4,19.4,0,0,0,15-2.31L63.31,381.59H214.62l-17.75-80.75H236l-20.6,42.91a5.8,5.8,0,0,0,.33,5.62,5.89,5.89,0,0,0,5,2.75h77.26a5.8,5.8,0,0,0,5-2.75A5.9,5.9,0,0,0,303.14,343.6Zm-25.93-69.06a9.55,9.55,0,0,1,6.7,2.76,6.07,6.07,0,0,1,1.85,4.38,6.89,6.89,0,0,1-2.24,4.84,9.05,9.05,0,0,1-6.31,2.5h-1.46l-.49-1v-13.5ZM199.82,289l-11.25-49.66H171.24L199.9,369.76H77.72l25.8-130.41H86.25L71.83,309.12A7.61,7.61,0,0,1,58,310.89a7.37,7.37,0,0,1-.79-5.72L74.46,224a33.64,33.64,0,0,1,31.2-25.12L137.6,254.1l31.93-55.27a33.67,33.67,0,0,1,31.19,25l9.16,50.67H242v13.68l-.38.79Zm78.05,47.31L267,314.48H242.47l11.24-23.26v-41.5h9.84v41.51l22.55,45.09Z" transform="translate(0 0)"/><path class="cls-2" d="M378.58,119.36,390.89,99h-7.33a48.64,48.64,0,0,0-27.89-34.37l-4.78,10.89A37.44,37.44,0,0,1,371.28,99h-5.37Z" transform="translate(0 0)"/><path class="cls-2" d="M326.22,74V79.4l20.41-12.67L326.22,54.41v7.34a48.74,48.74,0,0,0-34.43,27.88l10.83,4.78A37.61,37.61,0,0,1,326.22,74Z" transform="translate(0 0)"/><path class="cls-2" d="M281.44,119.21h7.33a48.68,48.68,0,0,0,27.89,34.4l4.78-10.86a37.49,37.49,0,0,1-20.39-23.54h5.37L293.75,98.8Z" transform="translate(0 0)"/><path class="cls-2" d="M346.47,138.89l-20.4,12.67,20.4,12.31v-7.33a48.61,48.61,0,0,0,34.35-27.89l-10.93-4.78a37.34,37.34,0,0,1-23.42,20.39Z" transform="translate(0 0)"/><rect class="cls-3" width="436" height="436"/></svg>