<svg id="Layer_1" data-name="Layer 1" xmlns="http://www.w3.org/2000/svg" viewBox="0 0 436 436"><defs><style>.cls-1{fill:#302f68;}.cls-2{fill:#00ad66;}.cls-3{fill:none;}</style></defs><title>timeline-conference</title><path class="cls-1" d="M315.42,137.05a22.67,22.67,0,0,0-22.62-22.51H283c-7.56,19.74-6.42,16.79-11.85,31l2.79-13.16a3.91,3.91,0,0,0-.4-2.72l-3.84-7,3.42-6.2a1.4,1.4,0,0,0-1.22-2.06h-9.36a1.39,1.39,0,0,0-1.22,2.06l.05.1a13.31,13.31,0,0,1,0,20.25l-7.91,7.1-1.41,6H292.3V137.29a2,2,0,0,1,4-.14h0l.07,12.73h19.12Z" transform="translate(0 0)"/><path class="cls-1" d="M241.47,114.54a22.67,22.67,0,0,0-22.62,22.51l-.07,12.83h5.89l3.8-16.16a13.4,13.4,0,0,1,4.07-6.86l13.67-12.32Z" transform="translate(0 0)"/><path class="cls-1" d="M267.22,68.6A19.82,19.82,0,1,0,287,88.41,19.81,19.81,0,0,0,267.22,68.6Z" transform="translate(0 0)"/><path class="cls-2" d="M310.83,160.54H241.32c2.77-11.76,1.65-7,4.92-20.92l10-9a5.33,5.33,0,0,0-7.12-7.93l-11.28,10.13a5.29,5.29,0,0,0-1.63,2.74c-3.49,14.85-2.81,12-5.88,25h-6.75a9.94,9.94,0,0,0-8.87,5.47,9.94,9.94,0,0,0-8.87-5.47H136.37c2.77-11.76,1.66-7,4.93-20.92l10-9a5.33,5.33,0,1,0-7.12-7.93l-11.28,10.13a5.32,5.32,0,0,0-1.62,2.74l-5.89,25h-6.75a9.94,9.94,0,0,0-9.94,10v2a10,10,0,0,0,9.94,10l5.77,46.12a32.24,32.24,0,0,1,20.81,43.77,35,35,0,0,1,21.25,11.29,35,35,0,0,1,21.4-11.31,32.19,32.19,0,0,1,11.68-39.51l6.3-50.36a9.94,9.94,0,0,0,8.87-5.47,9.94,9.94,0,0,0,8.87,5.47l5.77,46.12a32.24,32.24,0,0,1,20.81,43.77,35,35,0,0,1,21.25,11.29,35,35,0,0,1,21.4-11.3,32.22,32.22,0,0,1,11.68-39.53l6.29-50.35a10,10,0,0,0,9.95-10v-2A9.94,9.94,0,0,0,310.83,160.54Z" transform="translate(0 0)"/><path class="cls-1" d="M369.49,306.92A22.18,22.18,0,0,0,347.34,285h-49.9a22.41,22.41,0,0,0-22.15,21.89V367.4h18.59V307a1.94,1.94,0,0,1,1.95-1.79,1.8,1.8,0,0,1,1.79,1.8V367.4h49.24V306.7a2,2,0,0,1,1.95-1.95,2,2,0,0,1,2,1.95c0,.1,0,.2,0,.31,0,5.61,0,54.53,0,60.39h18.64C369.46,360.58,369.52,313.75,369.49,306.92Z" transform="translate(0 0)"/><path class="cls-1" d="M322.47,240.36a19.27,19.27,0,1,0,19.26,19.26A19.26,19.26,0,0,0,322.47,240.36Z" transform="translate(0 0)"/><path class="cls-1" d="M160.7,306.77a22.18,22.18,0,0,0-22.15-21.89H88.65A22.41,22.41,0,0,0,66.5,306.77v60.48H85.09V306.86a1.94,1.94,0,0,1,2-1.79,1.8,1.8,0,0,1,1.79,1.8v60.38h49.24v-60.7a2,2,0,0,1,2-1.95,2,2,0,0,1,2,1.95c0,.1,0,.2,0,.31,0,5.61,0,54.54,0,60.39H160.7C160.66,360.43,160.73,313.6,160.7,306.77Z" transform="translate(0 0)"/><path class="cls-1" d="M113.68,240.21a19.27,19.27,0,1,0,19.26,19.27A19.27,19.27,0,0,0,113.68,240.21Z" transform="translate(0 0)"/><path class="cls-1" d="M210.47,137.05a22.67,22.67,0,0,0-22.62-22.51h-9.8c-7.56,19.74-6.42,16.79-11.85,31L169,132.34a3.91,3.91,0,0,0-.4-2.72l-3.83-7,3.41-6.2a1.39,1.39,0,0,0-1.22-2.06h-9.36a1.39,1.39,0,0,0-1.22,2.06l0,.1a13.31,13.31,0,0,1,0,20.25l-7.91,7.1-1.41,6h40.26V137.29a2,2,0,0,1,4-.14h0l.07,12.73h19.12Z" transform="translate(0 0)"/><path class="cls-1" d="M136.53,114.54a22.67,22.67,0,0,0-22.63,22.51l-.07,12.83h5.89l3.8-16.16a13.4,13.4,0,0,1,4.07-6.86l13.67-12.32Z" transform="translate(0 0)"/><path class="cls-1" d="M162.27,68.6a19.82,19.82,0,1,0,19.81,19.81A19.82,19.82,0,0,0,162.27,68.6Z" transform="translate(0 0)"/><path class="cls-1" d="M264.54,306.92A22.18,22.18,0,0,0,242.39,285h-49.9a22.41,22.41,0,0,0-22.15,21.89V367.4h18.59V307a1.94,1.94,0,0,1,1.95-1.79,1.8,1.8,0,0,1,1.79,1.8V367.4h49.24V306.7a2,2,0,0,1,2-1.95,2,2,0,0,1,2,1.95c0,.1,0,.2,0,.31,0,5.61,0,54.53,0,60.39h18.64C264.51,360.58,264.58,313.75,264.54,306.92Z" transform="translate(0 0)"/><path class="cls-1" d="M217.52,240.36a19.27,19.27,0,1,0,19.26,19.26A19.26,19.26,0,0,0,217.52,240.36Z" transform="translate(0 0)"/><rect class="cls-3" width="436" height="436"/></svg>